<?xml version="1.0" encoding="UTF-8" standalone="no"?>
<svg width="100" height="100" viewBox="0 0 100 100" fill="none" xmlns="http://www.w3.org/2000/svg">
  <!-- Simple glow effect for braces -->
  <defs>
    <filter id="simpleGlow" x="-20%" y="-20%" width="140%" height="140%">
      <feGaussianBlur stdDeviation="1.5" result="blur" />
      <feFlood flood-color="#d6fb41" flood-opacity="0.5" result="glow" />
      <feComposite in="glow" in2="blur" operator="in" result="coloredBlur" />
      <feComposite in="SourceGraphic" in2="coloredBlur" operator="over" />
    </filter>
  </defs>
  
  <!-- Left curly brace with glow -->
  <path d="M25 30C19 30 15 35 15 40V45C15 51 11 53 5 53C11 53 15 55 15 61V66C15 71 19 76 25 76" 
    stroke="#d6fb41" stroke-width="6" stroke-linecap="round" stroke-linejoin="round" filter="url(#simpleGlow)" />
  
  <!-- Right curly brace with glow -->
  <path d="M75 30C81 30 85 35 85 40V45C85 51 89 53 95 53C89 53 85 55 85 61V66C85 71 81 76 75 76" 
    stroke="#d6fb41" stroke-width="6" stroke-linecap="round" stroke-linejoin="round" filter="url(#simpleGlow)" />
</svg>