<?xml version="1.0" encoding="UTF-8" standalone="no"?>
<svg width="100" height="100" viewBox="0 0 100 100" fill="none" xmlns="http://www.w3.org/2000/svg">
  <!-- Left curly brace -->
  <path d="M30 20C24 20 20 25 20 32V40C20 46 16 48 10 48C16 48 20 50 20 56V64C20 71 24 76 30 76" stroke="#d6fb41" stroke-width="10" stroke-linecap="round" stroke-linejoin="round"/>
  
  <!-- Right curly brace -->
  <path d="M70 20C76 20 80 25 80 32V40C80 46 84 48 90 48C84 48 80 50 80 56V64C80 71 76 76 70 76" stroke="#d6fb41" stroke-width="10" stroke-linecap="round" stroke-linejoin="round"/>
  
  <!-- Forward slash in the middle -->
  <path d="M50 20L50 80" stroke="#d6fb41" stroke-width="10" stroke-linecap="round" stroke-linejoin="round" transform="rotate(15 50 50)"/>
</svg>