<?xml version="1.0" encoding="UTF-8" standalone="no"?>
<svg width="100" height="100" viewBox="0 0 100 100" fill="none" xmlns="http://www.w3.org/2000/svg">
  <!-- Rounded square border -->
  <rect x="5" y="5" width="90" height="90" rx="15" stroke="#1A2A38" stroke-width="4" fill="none"/>
  
  <!-- Left curly brace -->
  <path d="M30 25C26 25 24 28 24 32V40C24 44 22 46 18 46C22 46 24 48 24 52V60C24 64 26 67 30 67" stroke="#1A2A38" stroke-width="4" stroke-linecap="round" stroke-linejoin="round"/>
  
  <!-- Right curly brace -->
  <path d="M70 25C74 25 76 28 76 32V40C76 44 78 46 82 46C78 46 76 48 76 52V60C76 64 74 67 70 67" stroke="#1A2A38" stroke-width="4" stroke-linecap="round" stroke-linejoin="round"/>
  
  <!-- Forward slash in the middle -->
  <path d="M50 25L50 75" stroke="#1A2A38" stroke-width="4" stroke-linecap="round" stroke-linejoin="round" transform="rotate(15 50 50)"/>
</svg>