<?xml version="1.0" encoding="UTF-8" standalone="no"?>
<svg width="100" height="100" viewBox="0 0 100 100" fill="none" xmlns="http://www.w3.org/2000/svg">
  <!-- Sharper glow effect for braces -->
  <defs>
    <filter id="sharpGlow" x="-10%" y="-10%" width="120%" height="120%">
      <feFlood flood-color="#d6fb41" flood-opacity="0.7" result="glow" />
      <feComposite in="glow" in2="SourceAlpha" operator="out" result="outline" />
      <feGaussianBlur in="outline" stdDeviation="2" result="blurredOutline" />
      <feComposite in="SourceGraphic" in2="blurredOutline" operator="over" />
    </filter>
  </defs>
  
  <!-- Left curly brace with sharper definition -->
  <path d="M25 30C19 30 15 35 15 40V45C15 51 11 53 5 53C11 53 15 55 15 61V66C15 71 19 76 25 76" 
    stroke="#d6fb41" stroke-width="6" stroke-linecap="round" stroke-linejoin="round" />
  
  <!-- Right curly brace with sharper definition -->
  <path d="M75 30C81 30 85 35 85 40V45C85 51 89 53 95 53C89 53 85 55 85 61V66C85 71 81 76 75 76" 
    stroke="#d6fb41" stroke-width="6" stroke-linecap="round" stroke-linejoin="round" />
  
  <!-- Glowing overlay for the braces -->
  <path d="M25 30C19 30 15 35 15 40V45C15 51 11 53 5 53C11 53 15 55 15 61V66C15 71 19 76 25 76" 
    stroke="#d6fb41" stroke-width="6" stroke-linecap="round" stroke-linejoin="round" filter="url(#sharpGlow)" />
  
  <path d="M75 30C81 30 85 35 85 40V45C85 51 89 53 95 53C89 53 85 55 85 61V66C85 71 81 76 75 76" 
    stroke="#d6fb41" stroke-width="6" stroke-linecap="round" stroke-linejoin="round" filter="url(#sharpGlow)" />
</svg>