<?xml version="1.0" encoding="UTF-8" standalone="no"?>
<svg xmlns="http://www.w3.org/2000/svg" viewBox="0 0 192 192" width="192" height="192">
  <!-- Black circular background -->
  <circle cx="96" cy="96" r="96" fill="#181818"/>
  
  <!-- Left curly brace without glow -->
  <path d="M48 60C36 60 28 70 28 80V90C28 102 20 106 8 106C20 106 28 110 28 122V132C28 142 36 152 48 152" 
    stroke="#d6fb41" stroke-width="12" stroke-linecap="round" stroke-linejoin="round" />
  
  <!-- Right curly brace without glow -->
  <path d="M144 60C156 60 164 70 164 80V90C164 102 172 106 184 106C172 106 164 110 164 122V132C164 142 156 152 144 152" 
    stroke="#d6fb41" stroke-width="12" stroke-linecap="round" stroke-linejoin="round" />
</svg>